<svg fill="none" height="32" viewBox="0 0 32 32" width="32" xmlns="http://www.w3.org/2000/svg"><g fill="#000"><path d="m15.7007 16.0064c0 .8648.7036 1.5685 1.5685 1.5685.8648 0 1.5684-.7037 1.5684-1.5685 0-.8649-.7036-1.5685-1.5684-1.5685-.8649 0-1.5685.7036-1.5685 1.5685z"/><path d="m11.3861 16.0064c0 .8648.7036 1.5685 1.5685 1.5685.8648 0 1.5684-.7037 1.5684-1.5685 0-.8649-.7036-1.5685-1.5684-1.5685-.8649 0-1.5685.7036-1.5685 1.5685z"/><path clip-rule="evenodd" d="m16 32c-8.83655 0-16-7.1635-16-16 0-8.83656 7.16345-16 16-16 8.8365 0 16 7.16344 16 16 0 8.8365-7.1635 16-16 16zm7.9615-17.6517-.7233.7233.7281.728c.0548.0552.0412.1266-.0405.2124-.0495.052-.098.0787-.144.0793h-.0015c-.0412 0-.0668-.0211-.076-.0303l-.7277-.7278-.7117.7117c-.0168.0167-.0464.0465-.0928.0465-.0413 0-.0862-.024-.1335-.0714-.0561-.0561-.0844-.1061-.0841-.1485.0004-.0411.0264-.0664.0437-.0831l.005-.005.709-.709-.7239-.7282c-.0582-.0586-.0436-.1279.0463-.2182.0883-.0882.1568-.102.2153-.0434l.7238.7283.725-.725c.0193-.0193.044-.039.0807-.039.0425.0003.092.0284.1453.0834.1245.1282.063.1898.0368.216zm-4.2922.7575c0-.561.4199-1.0325.9559-1.0732.3025-.0226.5989.0871.8135.3011.2139.2133.3236.5101.3011.8144-.0258.3503-.2458.674-.5742.8448-.1922.0999-.3863.1372-.5766.1108-.1067-.0149-.1074-.0701-.0989-.1936.0128-.1836.0789-.1872.1564-.1872h.0057c.302 0 .4722-.1447.5621-.2662.1189-.1607.1449-.3339.1449-.3871 0-.1858-.0785-.363-.2153-.4863-.1393-.1256-.3185-.184-.5048-.165-.3246.0336-.5789.3338-.5789.6834v1.7782c0 .1028-.0782.1238-.1955.1238-.1172 0-.1954-.021-.1954-.1238zm-11.20498.3844c.30506-.2348.67957-.337 1.06363-.2818.62795.0899 1.11715.594 1.18765 1.2258.0451.4037-.0772.7918-.3466 1.0928-.2658.2972-.64622.4677-1.04374.4677-.58698 0-1.11615-.3713-1.31681-.9237-.02115-.0584-.01223-.1229.14103-.1787.1668-.0606.20535-.0173.22818.0412.15411.395.5242.6672.94766.6672.28583 0 .55945-.1227.75058-.3366.1936-.2166.2823-.496.2495-.7865-.0513-.4554-.42678-.8274-.89306-.8845-.39065-.0478-.80163.216-.99054.4882l-.00433.0067c-.04105.0455-.09558.0563-.18951.0378-.10727-.0213-.16489-.0521-.16489-.143v-1.7341c0-.1033.06091-.1964.17602-.1964h1.98271c.0476 0 .1198.0071.1198.1864 0 .1837-.0446.1949-.1068.1949h-1.79048zm6.81108.5162c0-1.0993.8944-1.9936 1.9938-1.9936 1.0993 0 1.9936.8943 1.9936 1.9936s-.8943 1.9936-1.9936 1.9936c-1.0994 0-1.9938-.8943-1.9938-1.9936zm-4.3146 0c0-1.0993.8944-1.9936 1.9938-1.9936 1.0993 0 1.9936.8943 1.9936 1.9936s-.8943 1.9936-1.9936 1.9936c-1.0994 0-1.9938-.8943-1.9938-1.9936z" fill-rule="evenodd"/></g></svg>